# xmcd
#
# Track frame offsets: 
#        183
#        2575
#        12315
#        16163
#        24510
#        26785
#        34760
#        38065
#        44745
#        51523
#        53370
#        55828
#        60170
#        72503
#        74865
#        96710
#        101093
#        113893
#        117420
#        122238
#        129163
#        136220
#        138788
#        142020
#        152843
#        171290
#        174930
#        189728
#        200145
#        213333
#
# Disc length: 3232 seconds
#
# Revision: 3
# Processed by: cddbd v1.5.2PL0 Copyright (c) Steve Scherf et al.
# Submitted via: ExactAudioCopy v0.95a5
#
DISCID=bc0c9e1e
DTITLE=Martha Argerich - Chopin: 26 Preludes - 3 Mazurkas, Op. 59 - Sche
DTITLE=rzo, Op. 39
DYEAR=1977
DGENRE=Classical
TTITLE0=24 Preludes, Op. 28, No. 1 in C major: Agitato
TTITLE1=24 Preludes, Op. 28, No. 2 in A minor: Lento
TTITLE2=24 Preludes, Op. 28, No. 3 in 3 in G major: Vivace
TTITLE3=24 Preludes, Op. 28, No. 4 in E minor: Largo
TTITLE4=24 Preludes, Op. 28, No. 5 in D major: Allegro molto
TTITLE5=24 Preludes, Op. 28, No. 6 in B minor: Lento assai
TTITLE6=24 Preludes, Op. 28, No. 7 in A major: Andantino
TTITLE7=24 Preludes, Op. 28, No. 8 in F sharp minor: Molto agitato
TTITLE8=24 Preludes, Op. 28, No. 9 in E major: Largo
TTITLE9=24 Preludes, Op. 28, No. 10 in C sharp minor: Allegro molto
TTITLE10=24 Preludes, Op. 28, No. 11 in B major: Vivace
TTITLE11=24 Preludes, Op. 28, No. 12 in G sharp minor: Presto
TTITLE12=24 Preludes, Op. 28, No. 13 in F sharp major: Lento
TTITLE13=24 Preludes, Op. 28, No. 14 in E flat minor: Allegro
TTITLE14=24 Preludes, Op. 28, No. 15 in D flat major: Sostenuto
TTITLE15=24 Preludes, Op. 28, No. 16 in B flat minor: Presto con fuoco
TTITLE16=24 Preludes, Op. 28, No. 17 in A flat majro: Allegetto
TTITLE17=24 Preludes, Op. 28, No. 18 in F minor: allegr molto
TTITLE18=24 Preludes, Op. 28, No. 19 in E flat major: Vivace
TTITLE19=24 Preludes, Op. 28, No. 20 in C minor: Largo
TTITLE20=24 Preludes, Op. 28, No. 21 in B flat major: Cantabile
TTITLE21=24 Preludes, Op. 28, No. 22 in G minor: Molto agitato
TTITLE22=24 Preludes, Op. 28, No. 23 in F major: Moderato
TTITLE23=24 Preludes, Op. 28, No. 24 in D minor: Allegro appassionato
TTITLE24=Prelude in C sharp minor, Op. 45: Sostenuto
TTITLE25=Prelude in A flat major, Post.: Presto
TTITLE26=3 Mazurkas, Op. 59, No. 1 in A minor: Moderato
TTITLE27=3 Mazurkas, Op. 59, No. 2 in A flat major: Allegretto
TTITLE28=3 Mazurkas, Op. 59, No. 3 in F sharp minor: Vivace
TTITLE29=Scherzo Op 39 in C sharp minor: Presto con fucco
EXTD=
EXTT0=
EXTT1=
EXTT2=
EXTT3=
EXTT4=
EXTT5=
EXTT6=
EXTT7=
EXTT8=
EXTT9=
EXTT10=
EXTT11=
EXTT12=
EXTT13=
EXTT14=
EXTT15=
EXTT16=
EXTT17=
EXTT18=
EXTT19=
EXTT20=
EXTT21=
EXTT22=
EXTT23=
EXTT24=
EXTT25=
EXTT26=
EXTT27=
EXTT28=
EXTT29=
PLAYORDER=
